<?xml version="1.0" encoding="UTF-8" standalone="no"?>
<!-- Created with Inkscape (http://www.inkscape.org/) -->

<svg
   xmlns:dc="http://purl.org/dc/elements/1.1/"
   xmlns:cc="http://creativecommons.org/ns#"
   xmlns:rdf="http://www.w3.org/1999/02/22-rdf-syntax-ns#"
   xmlns:svg="http://www.w3.org/2000/svg"
   xmlns="http://www.w3.org/2000/svg"
   xmlns:sodipodi="http://sodipodi.sourceforge.net/DTD/sodipodi-0.dtd"
   xmlns:inkscape="http://www.inkscape.org/namespaces/inkscape"
   version="1.1"
   id="svg64"
   width="527.67999"
   height="415.67999"
   viewBox="0 0 527.67999 415.67999"
   sodipodi:docname="JollyMonero.svg"
   inkscape:version="0.92.5 (2060ec1f9f, 2020-04-08)">
  <metadata
     id="metadata70">
    <rdf:RDF>
      <cc:Work
         rdf:about="">
        <dc:format>image/svg+xml</dc:format>
        <dc:type
           rdf:resource="http://purl.org/dc/dcmitype/StillImage" />
        <dc:title></dc:title>
      </cc:Work>
    </rdf:RDF>
  </metadata>
  <defs
     id="defs68" />
  <sodipodi:namedview
     pagecolor="#ffffff"
     bordercolor="#666666"
     borderopacity="1"
     objecttolerance="10"
     gridtolerance="10"
     guidetolerance="10"
     inkscape:pageopacity="0"
     inkscape:pageshadow="2"
     inkscape:window-width="1848"
     inkscape:window-height="1016"
     id="namedview66"
     showgrid="false"
     inkscape:snap-global="false"
     fit-margin-top="0"
     fit-margin-left="0"
     fit-margin-right="0"
     fit-margin-bottom="0"
     inkscape:zoom="1.4142136"
     inkscape:cx="312.63917"
     inkscape:cy="208.91912"
     inkscape:window-x="72"
     inkscape:window-y="27"
     inkscape:window-maximized="1"
     inkscape:current-layer="svg64" />
  <g
     id="g3785"
     transform="translate(0.80260913,0.37001939)">
    <path
       style="fill:#f8f7f7;stroke-width:0.31999999"
       d="M 0,207.83999 V 0 h 263.83999 263.84 v 207.83999 207.84 H 263.83999 0 Z"
       id="path3791"
       inkscape:connector-curvature="0" />
    <path
       style="fill:#fd6400;stroke-width:0.31999999"
       d="m 0,367.20057 v -48.47944 l 88.399998,-0.0806 88.400002,-0.0806 0.16,-54.21334 c 0.10544,-35.72904 0.2691,-54.24499 0.48,-54.30617 0.176,-0.0511 0.896,0.63997 1.6,1.53563 0.704,0.89565 2.19965,2.65343 3.32368,3.90617 1.12402,1.25275 3.01238,3.42971 4.19635,4.83771 6.03343,7.17504 15.47423,16.46621 27.03997,26.61134 3.696,3.24203 9.30023,8.15677 12.45385,10.92163 3.15361,2.76487 6.71761,5.80565 7.92,6.75729 1.20238,0.95164 2.18615,1.85461 2.18615,2.00659 0,0.15199 -0.65385,0.73721 -1.45299,1.3005 -1.01477,0.71528 -1.42494,1.21474 -1.36,1.65607 0.19087,1.29711 4.81145,2.94604 9.21299,3.28782 2.48158,0.19269 3.80427,0.66216 5.0347,1.787 l 0.7147,0.65337 -0.70235,1.13642 c -1.37002,2.21674 -0.5151,6.75198 1.85973,9.86553 1.23152,1.6146 1.95432,1.44087 6.48704,-1.55928 3.70769,-2.45407 3.17975,-2.42797 6.35102,-0.31402 5.01417,3.34241 5.68905,3.52435 6.94837,1.8733 2.37483,-3.11355 3.22975,-7.64879 1.85973,-9.86553 l -0.70235,-1.13642 0.7147,-0.65337 c 1.23043,-1.12484 2.55312,-1.59431 5.0347,-1.787 4.40154,-0.34178 9.02212,-1.99071 9.21299,-3.28782 0.0649,-0.44133 -0.34523,-0.94079 -1.36,-1.65607 -0.79914,-0.56329 -1.45299,-1.14851 -1.45299,-1.3005 0,-0.15198 0.98377,-1.05495 2.18616,-2.00659 1.20238,-0.95164 4.76638,-3.99242 7.91999,-6.75729 3.15362,-2.76486 8.75785,-7.6796 12.45385,-10.92163 11.08286,-9.72158 21.1505,-19.58387 26.34871,-25.81134 0.808,-0.968 2.55526,-2.984 3.88281,-4.48 1.32752,-1.496 3.11578,-3.55752 3.97392,-4.58117 0.87536,-1.0442 1.68148,-1.73991 1.83645,-1.58493 0.15216,0.15215 0.31261,24.49037 0.35719,54.18117 l 0.0809,53.90493 92.88,0.0805 92.88,0.0805 v -13.9199 -13.91991 l -78.8,-0.0806 -78.8,-0.0806 -0.0858,-58.4 c -0.082,-55.82711 0.0982,-72.16062 0.88662,-80.31999 0.4225,-4.37289 -0.13715,-11.30648 -1.1623,-14.4 -0.98064,-2.95911 -3.57373,-7.60312 -4.7256,-8.46311 -0.66058,-0.49319 -0.98077,-0.56035 -1.40269,-0.29421 -0.30067,0.18968 -1.41699,2.42332 -2.48067,4.96366 -1.06371,2.54034 -2.23594,5.11714 -2.60496,5.72623 -0.36906,0.60908 -1.86128,3.41143 -3.31603,6.22743 -1.45479,2.816 -2.88659,5.48 -3.18179,5.92 -0.2952,0.44 -1.0922,1.808 -1.77111,3.04 -0.67888,1.232 -1.85565,3.20121 -2.61501,4.37603 -0.75936,1.17482 -1.38064,2.23639 -1.38064,2.35904 0,0.27869 -4.09744,6.18204 -6.24,8.99021 -0.88,1.15339 -2.248,3.00697 -3.04,4.11906 -5.19052,7.28833 -15.26614,19.40636 -21.94687,26.39566 -1.26172,1.32 -2.97814,3.192 -3.81427,4.16 -2.49314,2.88635 -9.74612,10.21585 -13.15167,13.29041 -6.52956,5.89496 -15.28036,13.53972 -19.95131,17.42958 -0.95103,0.792 -2.24366,1.87907 -2.87251,2.41571 -3.76975,3.21697 -15.24929,12.30429 -15.54336,12.30429 -0.29408,0 -11.77362,-9.08732 -15.54337,-12.30429 -0.62885,-0.53664 -1.92148,-1.62371 -2.87251,-2.41571 -4.38581,-3.65241 -13.56005,-11.6684 -19.94802,-17.42958 -3.3944,-3.06133 -10.6415,-10.38199 -13.15688,-13.29041 -0.83718,-0.968 -2.48537,-2.768 -3.66264,-4 -6.70493,-7.01662 -16.94908,-19.32799 -22.09658,-26.55556 -0.792,-1.11204 -2.24453,-3.07997 -3.22784,-4.37317 -2.24533,-2.95295 -6.05216,-8.45108 -6.05216,-8.74101 0,-0.12001 -0.6213,-1.17941 -1.38066,-2.35423 -0.75936,-1.17482 -1.93611,-3.14403 -2.615,-4.37603 -0.6789,-1.232 -1.47589,-2.6 -1.77109,-3.04 -0.2952,-0.44 -1.727,-3.104 -3.18178,-5.92 -1.45478,-2.816 -2.94699,-5.61835 -3.31604,-6.22743 -0.36904,-0.60909 -1.54127,-3.18589 -2.60496,-5.72623 -1.06368,-2.54034 -2.18,-4.77398 -2.48069,-4.96366 -0.42192,-0.26614 -0.74212,-0.19898 -1.40269,0.29421 -1.15232,0.86033 -3.74545,5.50504 -4.72493,8.46311 -1.0972,3.31357 -1.5892,9.78285 -1.10731,14.56 0.41411,4.10517 0.83686,90.80151 0.58515,119.99999 l -0.16,18.56 -74.320001,0.0807 L 0,290.88135 V 145.44067 0 h 263.83999 263.84 v 207.83999 207.84 H 263.83999 0 Z m 201.35619,-64.21059 c 2.35493,-0.77308 3.23486,-1.41815 4.65038,-3.4091 1.82047,-2.56054 0.79099,-4.39049 -1.32041,-2.34709 -0.55339,0.53558 -1.54154,1.19706 -2.19589,1.46999 -1.37594,0.57389 -4.90681,0.66722 -5.23368,0.13834 -0.12698,-0.20546 0.41369,-0.90054 1.26946,-1.63203 2.48289,-2.12231 3.01443,-3.94941 1.82199,-6.26285 -2.17198,-4.21381 -7.95949,-5.94405 -12.66958,-3.7877 -4.57956,2.09659 -5.62771,5.04302 -3.48917,9.80832 1.5501,3.4541 5.16247,5.90805 10.05071,6.82764 1.4408,0.27105 5.09775,-0.1429 7.11619,-0.80552 z m 125.75724,0.0798 c 3.87456,-1.33304 6.09799,-3.16217 7.41728,-6.10191 2.13853,-4.7653 1.09037,-7.71173 -3.48918,-9.80832 -4.71008,-2.15635 -10.4976,-0.42611 -12.66958,3.7877 -1.19244,2.31344 -0.6609,4.14054 1.822,6.26285 0.85577,0.73149 1.39644,1.42657 1.26944,1.63203 -0.32685,0.52888 -3.85773,0.43555 -5.23367,-0.13834 -0.65435,-0.27293 -1.6425,-0.93441 -2.19589,-1.46999 -2.1114,-2.0434 -3.14088,-0.21345 -1.32041,2.34709 1.3545,1.90513 2.25938,2.60625 4.24657,3.29032 3.60749,1.24183 6.93216,1.30685 10.15344,0.19857 z m -58.87567,-2.22142 c 2.67219,-1.06533 5.10246,-3.05761 8.72223,-7.15029 4.87364,-5.51035 9.61021,-10.31989 12.8,-12.99719 4.04247,-3.39298 8.84983,-6.48554 10.40623,-6.69429 1.23565,-0.16574 1.27334,-0.14086 1.86598,1.23213 0.74552,1.72716 1.43757,2.35644 3.08779,2.80769 2.96501,0.81079 6.1697,0.22298 8.18392,-1.50112 1.50364,-1.28705 3.17543,-4.45499 3.17583,-6.01796 6.4e-4,-2.08036 -2.19439,-4.17652 -5.41964,-5.1758 -2.49086,-0.77174 -9.00945,-0.76107 -11.84326,0.0194 -3.0115,0.8294 -7.33132,2.98406 -11.65552,5.81362 -4.71226,3.08348 -5.83373,3.58287 -9.68237,4.31153 -1.68855,0.31969 -3.18539,0.76784 -3.32634,0.99589 -0.14094,0.22805 -0.12494,0.76003 0.0356,1.18218 1.05054,2.7631 -0.71505,7.29044 -4.39187,11.26175 -1.16714,1.26063 -2.53762,2.50693 -3.0455,2.76956 -0.86667,0.44818 -0.98799,0.42826 -1.97433,-0.32406 -1.76391,-1.34539 -3.21195,-1.78189 -5.8862,-1.77435 -2.70734,0.008 -4.58798,0.63179 -5.78942,1.92137 -0.60845,0.6531 -0.7647,0.68281 -1.65397,0.31446 -0.54012,-0.22373 -1.9831,-1.4787 -3.20662,-2.78883 -3.78247,-4.05023 -5.57497,-8.57474 -4.50844,-11.3799 0.1605,-0.42215 0.1765,-0.95413 0.0356,-1.18218 -0.14095,-0.22805 -1.63779,-0.6762 -3.32633,-0.99589 -3.84865,-0.72866 -4.97012,-1.22805 -9.68238,-4.31153 -4.3242,-2.82956 -8.64402,-4.98422 -11.65552,-5.81362 -2.83381,-0.78045 -9.3524,-0.79112 -11.84326,-0.0194 -3.22525,0.99928 -5.42017,3.09544 -5.41964,5.1758 3.2e-4,1.56297 1.67219,4.73091 3.17583,6.01796 2.01422,1.7241 5.21891,2.31191 8.18392,1.50112 1.65022,-0.45125 2.34227,-1.08053 3.08779,-2.80769 0.59264,-1.37299 0.63033,-1.39787 1.86599,-1.23213 1.55639,0.20875 6.36375,3.30131 10.40622,6.69429 3.16542,2.65684 7.81166,7.37034 12.9075,13.09434 4.3242,4.85725 6.09136,6.20766 9.6525,7.37617 1.50593,0.49413 2.70695,0.56538 8.32,0.49357 5.97475,-0.0764 6.72395,-0.14929 8.39776,-0.8166 z m -45.88753,-7.43188 c 5.21937,-1.06893 9.99377,-2.18493 10.60977,-2.48 1.59001,-0.76161 1.65589,-1.97511 0.21711,-3.9988 -2.5098,-3.53008 -9.06285,-7.82527 -11.3768,-7.45691 -1.18781,0.18909 -2.28031,1.00739 -2.28031,1.70799 0,0.24725 0.74089,1.23293 1.64642,2.1904 0.90552,0.95746 1.44424,1.74084 1.19715,1.74084 -0.2471,0 -1.61584,-0.78102 -3.04165,-1.73561 -3.20737,-2.14735 -4.56911,-2.55771 -6.88944,-2.07616 -3.761,0.78055 -4.11014,1.9869 -1.34423,4.6445 2.97306,2.85663 1.54551,2.7632 -2.06485,-0.13515 -1.10912,-0.89039 -2.53295,-1.78931 -3.16405,-1.99759 -2.07328,-0.68425 -5.8085,0.19202 -6.30215,1.47846 -0.30018,0.78226 0.85492,3.10864 2.34752,4.72792 2.57541,2.79398 7.1702,5.31026 9.72551,5.32604 0.67662,0.004 5.50062,-0.86699 10.72,-1.93593 z m 89.05462,0.59162 c 3.03743,-1.50118 6.06443,-4.2301 7.14736,-6.44354 0.47981,-0.9807 0.74115,-1.92586 0.61988,-2.24187 -0.50235,-1.30913 -4.21768,-2.19371 -6.31145,-1.5027 -0.6311,0.20828 -2.05493,1.1072 -3.16405,1.99759 -3.61036,2.89835 -5.03791,2.99178 -2.06485,0.13515 2.76591,-2.6576 2.41677,-3.86395 -1.34423,-4.6445 -2.32033,-0.48155 -3.68207,-0.0712 -6.88944,2.07616 -1.42581,0.95459 -2.79455,1.73561 -3.04165,1.73561 -0.24709,0 0.29163,-0.78338 1.19716,-1.74084 0.90552,-0.95747 1.64641,-1.94315 1.64641,-2.1904 0,-0.7006 -1.0925,-1.5189 -2.28031,-1.70799 -2.31395,-0.36836 -8.867,3.92683 -11.3768,7.45691 -1.43865,2.0235 -1.3728,3.23669 0.21711,4.00009 0.616,0.29578 5.224,1.40132 10.24,2.45677 10.90318,2.2942 11.92218,2.33479 15.40486,0.61356 z m -53.02333,-64.09382 c 0.34184,-0.0696 3.48102,0.028 6.97595,0.21698 8.48238,0.45855 7.76838,0.76155 14.77611,-6.2705 3.00653,-3.01696 6.12886,-6.00899 6.93851,-6.64895 1.96781,-1.55539 2.4185,-2.64045 3.18472,-7.66734 0.58591,-3.844 1.34406,-7.45201 3.1823,-15.14446 0.80991,-3.38924 1.35502,-7.37475 1.22548,-8.96 l -0.1046,-1.28 -1.56802,-0.0995 c -1.47156,-0.0934 -1.65516,-0.0146 -2.98443,1.28 -2.93311,2.85666 -4.99506,7.42847 -5.8858,13.05014 -0.887,5.59808 -1.85673,9.89123 -2.53194,11.20935 -0.89648,1.75008 -4.10455,4.48 -5.26467,4.48 -0.46819,0 -0.50842,-0.25819 -0.31773,-2.03883 0.20298,-1.89546 0.16601,-2.07548 -0.52574,-2.56 -1.03753,-0.72671 -3.33158,-0.66612 -4.60624,0.12166 -1.4745,0.91129 -1.8869,2.07165 -1.40975,3.96658 0.44622,1.77208 0.2192,2.14514 -1.35069,2.21961 l -1.07499,0.051 0.10459,-2.61541 c 0.13604,-3.40229 -0.29827,-3.94459 -3.15913,-3.94459 -1.62729,0 -2.05929,0.12475 -2.72,0.78546 -0.89156,0.89156 -0.93154,1.26041 -0.41524,3.83125 0.41854,2.08403 0.21511,2.41349 -1.49021,2.41349 -1.72627,0 -1.94839,-0.36458 -1.28324,-2.10627 0.8206,-2.1487 0.82198,-4.20052 0.003,-4.81755 -0.98164,-0.73979 -4.79881,-0.40979 -5.7015,0.4929 -0.67388,0.67388 -0.67508,0.70091 -0.12674,2.84054 0.77033,3.00583 0.73763,3.28018 -0.39093,3.28018 -0.51655,0 -1.32594,-0.14704 -1.79865,-0.32677 -0.76061,-0.28918 -0.8354,-0.44563 -0.65016,-1.36 0.11512,-0.56827 0.29412,-1.83334 0.39775,-2.81126 0.25589,-2.41446 -0.20216,-2.86197 -2.92941,-2.86197 -1.81613,0 -2.10493,0.0903 -2.69714,0.84316 -0.48487,0.61642 -0.66322,1.30754 -0.66322,2.57004 0,1.99827 -0.40342,2.335 -2.0034,1.67226 -2.95906,-1.22568 -4.26253,-3.56714 -5.35103,-9.61218 -0.63459,-3.52417 -2.27036,-9.48496 -3.51794,-12.81942 -1.38472,-3.70099 -3.50309,-6.00989 -5.5165,-6.01266 -0.51681,-6.4e-4 -1.32719,0.40122 -2,0.99195 -1.47598,1.29593 -1.4609,2.00647 0.14142,6.66616 1.16382,3.38449 1.30044,4.13818 1.59887,8.8207 0.17947,2.816 0.32682,6.49215 0.32744,8.16924 l 0.001,3.04924 2,1.93882 c 1.1,1.06635 3.368,3.07784 5.04,4.46997 1.672,1.39214 4.48,3.9786 6.24,5.74771 5.39638,5.4243 5.09123,5.29706 12.16,5.07017 2.816,-0.0904 5.39969,-0.22128 5.74153,-0.29088 z m -5.73108,-25.12409 c 0.9779,-0.91869 1.02523,-2.24306 0.1614,-4.51648 -0.34548,-0.90924 -0.54272,-1.7914 -0.4383,-1.96035 0.19511,-0.31568 2.86306,-0.14341 3.21401,0.20753 0.10776,0.10776 -6e-5,0.7898 -0.23961,1.51563 -0.68012,2.0608 -0.60293,4.71528 0.15322,5.26879 0.83113,0.6084 3.49317,0.57749 4.71581,-0.0548 0.94295,-0.48762 0.9773,-0.57607 0.80122,-2.06279 -0.10118,-0.85434 -0.40767,-1.98593 -0.68108,-2.51465 -0.81726,-1.5804 -0.65694,-2.21411 0.62078,-2.45381 0.61484,-0.11535 1.49436,-0.11523 1.95449,2.5e-4 0.7193,0.18053 0.80741,0.33127 0.62848,1.07522 -0.72625,3.01953 -0.80076,3.75154 -0.49674,4.88058 0.37232,1.38269 0.74221,1.58467 2.90205,1.58467 2.07822,0 2.85382,-0.73619 2.85382,-2.70882 0,-0.78585 -0.22634,-2.0955 -0.50299,-2.91034 -0.27664,-0.81484 -0.42084,-1.56368 -0.32043,-1.66409 0.28281,-0.2828 4.04785,-0.73943 4.38398,-0.53169 0.17453,0.10786 0.2111,1.3449 0.088,2.97582 -0.18423,2.44053 -0.13799,2.86395 0.36808,3.37001 0.85318,0.85319 3.69472,0.57133 4.8132,-0.47743 0.95541,-0.89586 0.91242,-1.81242 -0.25644,-5.46716 l -0.6824,-2.13369 2.91643,-3.20724 c 3.27528,-3.60186 3.59115,-4.11478 4.70459,-7.63944 1.52641,-4.83194 3.95504,-6.00562 9.448,-4.56593 2.67941,0.70226 4.94646,0.81036 6.29917,0.30037 1.99875,-0.75356 4.0964,-3.54092 5.02592,-6.67845 1.12782,-3.80691 0.40476,-5.8168 -2.68509,-7.46374 -2.05954,-1.09777 -3.44974,-2.31712 -3.91995,-3.43818 -0.18455,-0.44 -0.44437,-3.392 -0.57739,-6.56 -0.15213,-3.6234 -0.41282,-6.2348 -0.70277,-7.04 -0.91025,-2.52774 -0.92616,-3.27125 -0.0906,-4.23307 0.72031,-0.82918 0.80579,-0.85219 1.31274,-0.35337 0.46067,0.45327 0.58791,1.67706 0.8456,8.13251 0.16683,4.17942 0.47187,8.11532 0.67787,8.74644 0.31886,0.97691 0.53433,1.16278 1.44955,1.25037 1.86243,0.17825 3.23407,-1.67012 4.94437,-6.66288 1.22655,-3.58059 1.49554,-5.9075 1.49815,-12.96 l 0.002,-6.4 -1.29751,-4.32 c -3.03811,-10.11563 -4.61084,-13.87855 -7.83124,-18.73733 -5.10323,-7.69948 -12.29423,-13.78566 -19.99103,-16.919607 -4.37803,-1.78263 -6.65056,-2.149539 -14.24,-2.299113 -9.31276,-0.183539 -14.31187,0.195673 -19.33246,1.466483 -10.34426,2.618333 -17.062,6.119637 -22.31902,11.632747 -3.22222,3.37919 -4.58291,5.98541 -7.29718,13.97682 -3.93699,11.59136 -4.51925,14.97192 -4.21641,24.48 0.2521,7.91509 0.70555,12.839 1.36396,14.81096 0.74767,2.2393 2.68178,4.13429 3.78682,3.71024 1.10089,-0.42245 1.268,-1.49596 1.48839,-9.5612 0.2334,-8.54173 0.61022,-10.92426 2.6318,-16.64 1.27394,-3.60189 2.38861,-7.71199 3.25444,-12 0.44423,-2.2 1.03418,-4.78447 1.31101,-5.74327 0.61179,-2.11894 2.25921,-5.45673 2.69326,-5.45673 0.46353,0 0.42105,0.2014 -0.81355,3.85712 -0.80416,2.38118 -1.31286,4.76876 -1.76824,8.29928 -0.76018,5.89367 -0.8965,6.43894 -2.72723,10.90879 -2.3609,5.76432 -2.47523,6.56121 -2.4183,16.85636 0.0564,10.20462 0.0147,10.43996 -2.21056,12.46094 -3.25174,2.95325 -3.18672,2.86777 -3.18672,4.1899 0,2.53463 3.67377,8.2633 6.10572,9.52091 1.3581,0.7023 2.66588,0.5669 6.53428,-0.67649 4.84675,-1.55787 6.10393,-1.67783 7.51512,-0.71708 1.57406,1.07164 2.42265,2.77931 3.35727,6.75602 1.012,4.30597 1.31665,5.02385 3.17663,7.48547 l 1.497,1.98123 -1.31142,2.60828 c -1.63391,3.24967 -1.61157,4.14702 0.11727,4.71145 0.9954,0.32498 1.39469,0.32307 2.08,-0.01 0.84361,-0.4099 0.84754,-0.42866 0.7375,-3.52218 L 244.41875,197.44 h 0.96445 c 2.16972,0 2.32545,0.42041 1.43822,3.88267 -0.51518,2.01042 -0.51434,2.16786 0.016,2.97721 0.74143,1.13157 1.64146,1.47766 3.49305,1.3432 1.05159,-0.0764 1.77748,-0.34323 2.32,-0.8529 z m 9.34296,-21.64174 c -0.56837,-0.82035 -1.3574,-1.84938 -1.7534,-2.28672 -0.396,-0.43735 -0.72,-0.96505 -0.72,-1.17267 0,-0.54414 -1.38847,-1.76905 -2.00526,-1.76905 -0.2882,0 -0.97144,0.65032 -1.5183,1.44517 -1.03915,1.51034 -2.18999,2.71483 -2.59393,2.71483 -0.13024,0 -0.48177,-0.24497 -0.78117,-0.54438 -0.79139,-0.79138 -0.44365,-3.91345 1.13335,-10.17562 2.28857,-9.08774 3.45706,-11.73449 4.93088,-11.16894 1.19295,0.45778 6.3756,9.34851 7.74597,13.28804 1.18114,3.39554 1.19635,6.69451 0.04,8.66772 -0.8671,1.4796 -2.06511,2.49318 -2.94685,2.49318 -0.27382,0 -0.96289,-0.6712 -1.53126,-1.49156 z M 234.66511,168.7649 c -3.34584,-1.65009 -5.49737,-5.14355 -6.35742,-10.32263 -0.90822,-5.46911 -0.34702,-10.4437 1.34589,-11.93018 1.63887,-1.43904 2.6857,-1.69195 6.82642,-1.64921 8.81726,0.091 13.97797,2.34434 14.58114,6.36659 0.36847,2.45712 -0.027,6.25381 -0.81153,7.79167 -0.95919,1.88018 -5.10723,5.98088 -8.02743,7.93582 -3.42758,2.29461 -5.54374,2.80088 -7.55707,1.80794 z m 44.50362,-1.69544 c -0.89719,-0.32309 -2.40919,-1.08602 -3.36,-1.69539 -2.56837,-1.64606 -6.69441,-5.68801 -7.96874,-7.80633 -1.06469,-1.76984 -1.12,-2.00768 -1.12,-4.8162 0,-2.94094 0.005,-2.95974 1.12,-4.12102 1.93357,-2.01402 4.78592,-3.04057 9.76,-3.51258 5.67036,-0.53808 10.94753,2.0286 12.02955,5.85086 1.08296,3.82556 -0.21031,13.32696 -2.04911,15.05442 -1.73873,1.63345 -5.48662,2.09961 -8.4117,1.04624 z m -21.12217,99.38295 c -0.97732,-0.84066 -0.8626,-1.26084 0.54264,-1.98752 0.86576,-0.4477 1.03169,-0.44148 1.89971,0.0713 1.17161,0.69209 1.19603,1.14471 0.10793,2.00061 -1.07745,0.84752 -1.48248,0.83412 -2.55028,-0.0844 z m -13.77213,-9.84683 c -1.88945,-1.42692 -3.76815,-2.74603 -4.1749,-2.93136 -0.40674,-0.18533 -0.73953,-0.44712 -0.73953,-0.58176 0,-0.13465 -1.62,-1.58506 -3.6,-3.22315 -1.98,-1.63809 -4.68,-3.99029 -6,-5.22711 -1.32,-1.23682 -3.192,-2.95841 -4.16,-3.82575 -6.06497,-5.43428 -19.35101,-18.52616 -23.72316,-23.37646 -4.84297,-5.37261 -9.58938,-11.79143 -11.60408,-15.69281 -2.44461,-4.73386 -2.0066,-6.58918 0.67317,-2.8514 3.80632,5.3091 11.57245,14.92634 17.17132,21.26421 8.7865,9.94623 21.88957,22.23837 31.08275,29.15905 1.056,0.79496 2.47411,1.86739 3.15135,2.38317 0.67725,0.51578 1.77693,1.29778 2.44374,1.73778 3.08203,2.03371 5.12491,3.68957 5.12491,4.154 0,0.43097 -1.48854,1.606 -2.03448,1.606 -0.0967,0 -1.72164,-1.16748 -3.61109,-2.59441 z m 25.24556,1.97247 c -0.396,-0.33035 -0.72,-0.80121 -0.72,-1.04635 0,-0.4106 2.1611,-2.13601 5.12491,-4.09171 0.66681,-0.44 1.76649,-1.222 2.44374,-1.73778 0.67724,-0.51578 2.09535,-1.58821 3.15135,-2.38317 9.19318,-6.92068 22.29625,-19.21282 31.08275,-29.15905 5.59887,-6.33787 13.365,-15.95511 17.17133,-21.26421 2.67975,-3.73778 3.11776,-1.88246 0.67316,2.8514 -2.01469,3.90138 -6.76112,10.3202 -11.60408,15.69281 -4.37215,4.8503 -17.65819,17.94218 -23.72316,23.37646 -0.968,0.86734 -2.84,2.58893 -4.16,3.82575 -1.32,1.23682 -4.02,3.58902 -6,5.22711 -1.98,1.63809 -3.6,3.0885 -3.6,3.22315 0,0.13464 -0.33279,0.39643 -0.73953,0.58176 -0.40675,0.18533 -2.28545,1.50444 -4.1749,2.93136 -1.88945,1.42693 -3.60866,2.58962 -3.82046,2.58377 -0.21181,-0.006 -0.70911,-0.28094 -1.10511,-0.6113 z"
       id="path3789"
       inkscape:connector-curvature="0" />
    <path
       style="fill:#2b2b2b;stroke-width:0.31999999"
       d="m 0,367.20057 v -48.47944 l 88.399998,-0.0806 88.400002,-0.0806 0.16,-54.21334 c 0.10544,-35.72904 0.2691,-54.24499 0.48,-54.30617 0.176,-0.0511 0.896,0.63997 1.6,1.53563 0.704,0.89565 2.19965,2.65343 3.32368,3.90617 1.12402,1.25275 3.01238,3.42971 4.19635,4.83771 6.03343,7.17504 15.47423,16.46621 27.03997,26.61134 3.696,3.24203 9.30023,8.15677 12.45385,10.92163 3.15361,2.76487 6.71761,5.80565 7.92,6.75729 1.20238,0.95164 2.18615,1.85461 2.18615,2.00659 0,0.15199 -0.65385,0.73721 -1.45299,1.3005 -1.01477,0.71528 -1.42494,1.21474 -1.36,1.65607 0.19087,1.29711 4.81145,2.94604 9.21299,3.28782 2.48158,0.19269 3.80427,0.66216 5.0347,1.787 l 0.7147,0.65337 -0.70235,1.13642 c -1.37002,2.21674 -0.5151,6.75198 1.85973,9.86553 1.23152,1.6146 1.95432,1.44087 6.48704,-1.55928 3.70769,-2.45407 3.17975,-2.42797 6.35102,-0.31402 5.01417,3.34241 5.68905,3.52435 6.94837,1.8733 2.37483,-3.11355 3.22975,-7.64879 1.85973,-9.86553 l -0.70235,-1.13642 0.7147,-0.65337 c 1.23043,-1.12484 2.55312,-1.59431 5.0347,-1.787 4.40154,-0.34178 9.02212,-1.99071 9.21299,-3.28782 0.0649,-0.44133 -0.34523,-0.94079 -1.36,-1.65607 -0.79914,-0.56329 -1.45299,-1.14851 -1.45299,-1.3005 0,-0.15198 0.98377,-1.05495 2.18616,-2.00659 1.20238,-0.95164 4.76638,-3.99242 7.91999,-6.75729 3.15362,-2.76486 8.75785,-7.6796 12.45385,-10.92163 11.08286,-9.72158 21.1505,-19.58387 26.34871,-25.81134 0.808,-0.968 2.55526,-2.984 3.88281,-4.48 1.32752,-1.496 3.11578,-3.55752 3.97392,-4.58117 0.87536,-1.0442 1.68148,-1.73991 1.83645,-1.58493 0.15216,0.15215 0.31261,24.49037 0.35719,54.18117 l 0.0809,53.90493 92.87661,0.0805 92.87661,0.0805 0.0869,-13.84054 c 0.0478,-7.6123 0.12131,14.20345 0.16339,48.47945 l 0.0765,62.32 H 263.83999 0 Z m 201.35619,-64.21059 c 2.35493,-0.77308 3.23486,-1.41815 4.65038,-3.4091 1.82047,-2.56054 0.79099,-4.39049 -1.32041,-2.34709 -0.55339,0.53558 -1.54154,1.19706 -2.19589,1.46999 -1.37594,0.57389 -4.90681,0.66722 -5.23368,0.13834 -0.12698,-0.20546 0.41369,-0.90054 1.26946,-1.63203 2.48289,-2.12231 3.01443,-3.94941 1.82199,-6.26285 -2.17198,-4.21381 -7.95949,-5.94405 -12.66958,-3.7877 -4.57956,2.09659 -5.62771,5.04302 -3.48917,9.80832 1.5501,3.4541 5.16247,5.90805 10.05071,6.82764 1.4408,0.27105 5.09775,-0.1429 7.11619,-0.80552 z m 125.75724,0.0798 c 3.87456,-1.33304 6.09799,-3.16217 7.41728,-6.10191 2.13853,-4.7653 1.09037,-7.71173 -3.48918,-9.80832 -4.71008,-2.15635 -10.4976,-0.42611 -12.66958,3.7877 -1.19244,2.31344 -0.6609,4.14054 1.822,6.26285 0.85577,0.73149 1.39644,1.42657 1.26944,1.63203 -0.32685,0.52888 -3.85773,0.43555 -5.23367,-0.13834 -0.65435,-0.27293 -1.6425,-0.93441 -2.19589,-1.46999 -2.1114,-2.0434 -3.14088,-0.21345 -1.32041,2.34709 1.3545,1.90513 2.25938,2.60625 4.24657,3.29032 3.60749,1.24183 6.93216,1.30685 10.15344,0.19857 z m -58.87567,-2.22142 c 2.67219,-1.06533 5.10246,-3.05761 8.72223,-7.15029 4.87364,-5.51035 9.61021,-10.31989 12.8,-12.99719 4.04247,-3.39298 8.84983,-6.48554 10.40623,-6.69429 1.23565,-0.16574 1.27334,-0.14086 1.86598,1.23213 0.74552,1.72716 1.43757,2.35644 3.08779,2.80769 2.96501,0.81079 6.1697,0.22298 8.18392,-1.50112 1.50364,-1.28705 3.17543,-4.45499 3.17583,-6.01796 6.4e-4,-2.08036 -2.19439,-4.17652 -5.41964,-5.1758 -2.49086,-0.77174 -9.00945,-0.76107 -11.84326,0.0194 -3.0115,0.8294 -7.33132,2.98406 -11.65552,5.81362 -4.71226,3.08348 -5.83373,3.58287 -9.68237,4.31153 -1.68855,0.31969 -3.18539,0.76784 -3.32634,0.99589 -0.14094,0.22805 -0.12494,0.76003 0.0356,1.18218 1.05054,2.7631 -0.71505,7.29044 -4.39187,11.26175 -1.16714,1.26063 -2.53762,2.50693 -3.0455,2.76956 -0.86667,0.44818 -0.98799,0.42826 -1.97433,-0.32406 -1.76391,-1.34539 -3.21195,-1.78189 -5.8862,-1.77435 -2.70734,0.008 -4.58798,0.63179 -5.78942,1.92137 -0.60845,0.6531 -0.7647,0.68281 -1.65397,0.31446 -0.54012,-0.22373 -1.9831,-1.4787 -3.20662,-2.78883 -3.78247,-4.05023 -5.57497,-8.57474 -4.50844,-11.3799 0.1605,-0.42215 0.1765,-0.95413 0.0356,-1.18218 -0.14095,-0.22805 -1.63779,-0.6762 -3.32633,-0.99589 -3.84865,-0.72866 -4.97012,-1.22805 -9.68238,-4.31153 -4.3242,-2.82956 -8.64402,-4.98422 -11.65552,-5.81362 -2.83381,-0.78045 -9.3524,-0.79112 -11.84326,-0.0194 -3.22525,0.99928 -5.42017,3.09544 -5.41964,5.1758 3.2e-4,1.56297 1.67219,4.73091 3.17583,6.01796 2.01422,1.7241 5.21891,2.31191 8.18392,1.50112 1.65022,-0.45125 2.34227,-1.08053 3.08779,-2.80769 0.59264,-1.37299 0.63033,-1.39787 1.86599,-1.23213 1.55639,0.20875 6.36375,3.30131 10.40622,6.69429 3.16542,2.65684 7.81166,7.37034 12.9075,13.09434 4.3242,4.85725 6.09136,6.20766 9.6525,7.37617 1.50593,0.49413 2.70695,0.56538 8.32,0.49357 5.97475,-0.0764 6.72395,-0.14929 8.39776,-0.8166 z m -45.88753,-7.43188 c 5.21937,-1.06893 9.99377,-2.18493 10.60977,-2.48 1.59001,-0.76161 1.65589,-1.97511 0.21711,-3.9988 -2.5098,-3.53008 -9.06285,-7.82527 -11.3768,-7.45691 -1.18781,0.18909 -2.28031,1.00739 -2.28031,1.70799 0,0.24725 0.74089,1.23293 1.64642,2.1904 0.90552,0.95746 1.44424,1.74084 1.19715,1.74084 -0.2471,0 -1.61584,-0.78102 -3.04165,-1.73561 -3.20737,-2.14735 -4.56911,-2.55771 -6.88944,-2.07616 -3.761,0.78055 -4.11014,1.9869 -1.34423,4.6445 2.97306,2.85663 1.54551,2.7632 -2.06485,-0.13515 -1.10912,-0.89039 -2.53295,-1.78931 -3.16405,-1.99759 -2.07328,-0.68425 -5.8085,0.19202 -6.30215,1.47846 -0.30018,0.78226 0.85492,3.10864 2.34752,4.72792 2.57541,2.79398 7.1702,5.31026 9.72551,5.32604 0.67662,0.004 5.50062,-0.86699 10.72,-1.93593 z m 89.05462,0.59162 c 3.03743,-1.50118 6.06443,-4.2301 7.14736,-6.44354 0.47981,-0.9807 0.74115,-1.92586 0.61988,-2.24187 -0.50235,-1.30913 -4.21768,-2.19371 -6.31145,-1.5027 -0.6311,0.20828 -2.05493,1.1072 -3.16405,1.99759 -3.61036,2.89835 -5.03791,2.99178 -2.06485,0.13515 2.76591,-2.6576 2.41677,-3.86395 -1.34423,-4.6445 -2.32033,-0.48155 -3.68207,-0.0712 -6.88944,2.07616 -1.42581,0.95459 -2.79455,1.73561 -3.04165,1.73561 -0.24709,0 0.29163,-0.78338 1.19716,-1.74084 0.90552,-0.95747 1.64641,-1.94315 1.64641,-2.1904 0,-0.7006 -1.0925,-1.5189 -2.28031,-1.70799 -2.31395,-0.36836 -8.867,3.92683 -11.3768,7.45691 -1.43865,2.0235 -1.3728,3.23669 0.21711,4.00009 0.616,0.29578 5.224,1.40132 10.24,2.45677 10.90318,2.2942 11.92218,2.33479 15.40486,0.61356 z m -53.35829,-27.55568 c -0.97732,-0.84066 -0.8626,-1.26084 0.54264,-1.98752 0.86576,-0.4477 1.03169,-0.44148 1.89971,0.0713 1.17161,0.69209 1.19603,1.14471 0.10793,2.00061 -1.07745,0.84752 -1.48248,0.83412 -2.55028,-0.0844 z m -13.77213,-9.84683 c -1.88945,-1.42692 -3.76815,-2.74603 -4.1749,-2.93136 -0.40674,-0.18533 -0.73953,-0.44712 -0.73953,-0.58176 0,-0.13465 -1.62,-1.58506 -3.6,-3.22315 -1.98,-1.63809 -4.68,-3.99029 -6,-5.22711 -1.32,-1.23682 -3.192,-2.95841 -4.16,-3.82575 -6.06497,-5.43428 -19.35101,-18.52616 -23.72316,-23.37646 -4.84297,-5.37261 -9.58938,-11.79143 -11.60408,-15.69281 -2.44461,-4.73386 -2.0066,-6.58918 0.67317,-2.8514 3.80632,5.3091 11.57245,14.92634 17.17132,21.26421 8.7865,9.94623 21.88957,22.23837 31.08275,29.15905 1.056,0.79496 2.47411,1.86739 3.15135,2.38317 0.67725,0.51578 1.77693,1.29778 2.44374,1.73778 3.08203,2.03371 5.12491,3.68957 5.12491,4.154 0,0.43097 -1.48854,1.606 -2.03448,1.606 -0.0967,0 -1.72164,-1.16748 -3.61109,-2.59441 z m 25.24556,1.97247 c -0.396,-0.33035 -0.72,-0.80121 -0.72,-1.04635 0,-0.4106 2.1611,-2.13601 5.12491,-4.09171 0.66681,-0.44 1.76649,-1.222 2.44374,-1.73778 0.67724,-0.51578 2.09535,-1.58821 3.15135,-2.38317 9.19318,-6.92068 22.29625,-19.21282 31.08275,-29.15905 5.59887,-6.33787 13.365,-15.95511 17.17133,-21.26421 2.67975,-3.73778 3.11776,-1.88246 0.67316,2.8514 -2.01469,3.90138 -6.76112,10.3202 -11.60408,15.69281 -4.37215,4.8503 -17.65819,17.94218 -23.72316,23.37646 -0.968,0.86734 -2.84,2.58893 -4.16,3.82575 -1.32,1.23682 -4.02,3.58902 -6,5.22711 -1.98,1.63809 -3.6,3.0885 -3.6,3.22315 0,0.13464 -0.33279,0.39643 -0.73953,0.58176 -0.40675,0.18533 -2.28545,1.50444 -4.1749,2.93136 -1.88945,1.42693 -3.60866,2.58962 -3.82046,2.58377 -0.21181,-0.006 -0.70911,-0.28094 -1.10511,-0.6113 z m -7.52659,-75.42961 c -0.56837,-0.82035 -1.3574,-1.84938 -1.7534,-2.28672 -0.396,-0.43735 -0.72,-0.96505 -0.72,-1.17267 0,-0.54414 -1.38847,-1.76905 -2.00526,-1.76905 -0.2882,0 -0.97144,0.65032 -1.5183,1.44517 -1.03915,1.51034 -2.18999,2.71483 -2.59393,2.71483 -0.13024,0 -0.48177,-0.24497 -0.78117,-0.54438 -0.79139,-0.79138 -0.44365,-3.91345 1.13335,-10.17562 2.28857,-9.08774 3.45706,-11.73449 4.93088,-11.16894 1.19295,0.45778 6.3756,9.34851 7.74597,13.28804 1.18114,3.39554 1.19635,6.69451 0.04,8.66772 -0.8671,1.4796 -2.06511,2.49318 -2.94685,2.49318 -0.27382,0 -0.96289,-0.6712 -1.53126,-1.49156 z M 234.66511,168.7649 c -3.34584,-1.65009 -5.49737,-5.14355 -6.35742,-10.32263 -0.90822,-5.46911 -0.34702,-10.4437 1.34589,-11.93018 1.63887,-1.43904 2.6857,-1.69195 6.82642,-1.64921 8.81726,0.091 13.97797,2.34434 14.58114,6.36659 0.36847,2.45712 -0.027,6.25381 -0.81153,7.79167 -0.95919,1.88018 -5.10723,5.98088 -8.02743,7.93582 -3.42758,2.29461 -5.54374,2.80088 -7.55707,1.80794 z m 44.50362,-1.69544 c -0.89719,-0.32309 -2.40919,-1.08602 -3.36,-1.69539 -2.56837,-1.64606 -6.69441,-5.68801 -7.96874,-7.80633 -1.06469,-1.76984 -1.12,-2.00768 -1.12,-4.8162 0,-2.94094 0.005,-2.95974 1.12,-4.12102 1.93357,-2.01402 4.78592,-3.04057 9.76,-3.51258 5.67036,-0.53808 10.94753,2.0286 12.02955,5.85086 1.08296,3.82556 -0.21031,13.32696 -2.04911,15.05442 -1.73873,1.63345 -5.48662,2.09961 -8.4117,1.04624 z"
       id="path3787"
       inkscape:connector-curvature="0" />
  </g>
</svg>
